<svg xmlns="http://www.w3.org/2000/svg" width="189.069" height="30.861" viewBox="0 0 189.069 30.861">
  <g id="Group_242" data-name="Group 242" transform="translate(-29.824 -13.49)">
    <g id="Group_1" data-name="Group 1" transform="translate(29.824 14.364)">
      <path id="Path_1" data-name="Path 1" d="M1.3,31.7H7.123c5.532,0,7.977-2.911,7.977-8.094V21.914c0-3.086-.932-4.891-2.911-5.823,1.863-1.165,2.911-2.329,2.911-5.532V9.453C15.042,5.61,13,2,7.53,2H1.3V31.7ZM5.551,17.9H7.414c3.086,0,3.61,1.572,3.61,4.484s-.233,5.008-3.668,5.008H5.551V17.9Zm0-11.937H7.3c2.795,0,3.785,1.4,3.785,4.018,0,2.737-.757,4.192-3.61,4.192H5.551V5.96Z" transform="translate(-1.3 -2)" fill="#fff" fill-rule="evenodd"/>
    </g>
    <g id="Group_2" data-name="Group 2" transform="translate(51.776 14.364)">
      <path id="Path_2" data-name="Path 2" d="M39,31.7H51.694V27.446H43.251V2H39Z" transform="translate(-39 -2)" fill="#fff"/>
    </g>
    <g id="Group_3" data-name="Group 3" transform="translate(71.399 14.364)">
      <path id="Path_3" data-name="Path 3" d="M86.442,2H82.191V24.651c0,2.1-1.106,3.086-2.62,3.086s-2.62-.99-2.62-3.086V2H72.7V25.059a6.871,6.871,0,1,0,13.742,0V2Z" transform="translate(-72.7 -2)" fill="#fff"/>
    </g>
    <g id="Group_4" data-name="Group 4" transform="translate(93.293 14.364)">
      <path id="Path_4" data-name="Path 4" d="M110.3,31.7h12.694V27.446h-8.443V18.712h7.4V14.694h-7.4V5.96h8.443V2H110.3Z" transform="translate(-110.3 -2)" fill="#fff"/>
    </g>
    <g id="Group_5" data-name="Group 5" transform="translate(141.623 14.131)">
      <path id="Path_5" data-name="Path 5" d="M207.915,8.3a6.942,6.942,0,0,0-7.1-6.7c-4.891,0-7.279,3.61-7.279,8.152,0,3.727.932,6.114,4.658,7.628l3.028,1.281c2.1.815,2.446,1.339,2.446,4.484,0,2.737-.233,4.425-3.086,4.425a2.833,2.833,0,0,1-3.028-3.028V23.2H193.3v1.572a7.016,7.016,0,0,0,7.279,7.046c5.532,0,7.337-3.727,7.337-8.734,0-4.367-.7-6.7-4.484-8.152l-3.261-1.281c-2.213-.873-2.446-1.689-2.446-3.96,0-1.98.524-3.843,2.853-3.843,2.154,0,3.028,1.63,3.028,3.61v.932h4.251V8.3Z" transform="translate(-193.3 -1.6)" fill="#fff"/>
    </g>
    <g id="Group_6" data-name="Group 6" transform="translate(161.421 14.364)">
      <path id="Path_6" data-name="Path 6" d="M232.249,31.7H236.5V5.96h4.891V2H227.3V5.96h4.949Z" transform="translate(-227.3 -2)" fill="#fff"/>
    </g>
    <g id="Group_7" data-name="Group 7" transform="translate(177.376 14.364)">
      <path id="Path_7" data-name="Path 7" d="M265.181,21.274H260.93l2.1-10.772h.058l2.1,10.772ZM254.7,31.7h4.251l1.281-6.405h5.823l1.281,6.405h4.251L264.89,2h-3.552L254.7,31.7Z" transform="translate(-254.7 -2)" fill="#fff" fill-rule="evenodd"/>
    </g>
    <g id="Group_8" data-name="Group 8" transform="translate(200.376 14.305)">
      <path id="Path_8" data-name="Path 8" d="M298.509,5.918h2.213c3.144,0,3.61,1.63,3.61,4.658,0,2.97-.466,4.658-3.435,4.658h-2.446V5.918Zm-4.251,25.737h4.251V18.961h2.562l3.96,12.694h4.484l-4.6-13.567c2.737-1.514,3.668-4.018,3.668-7.453,0-5.765-2.446-8.734-7.512-8.734H294.2V31.655Z" transform="translate(-294.2 -1.9)" fill="#fff" fill-rule="evenodd"/>
    </g>
    <g id="Group_9" data-name="Group 9" transform="translate(110.704 13.49)">
      <path id="Path_9" data-name="Path 9" d="M163.084,21.288l-7.22-3.494,2.97,7.453-4.542-6.638-1.165,11.937-.582-12-5.008,6.289,3.494-7.22-7.453,2.97,6.638-4.542L140.2,14.883l10.074-.582-6.289-4.949,7.22,3.436-2.97-7.453,4.542,6.638L153.942.5l.582,11.529,4.949-6.289-3.435,7.22,7.453-2.97-6.638,4.542,10.6,1.165L156.8,16.28Z" transform="translate(-140.2 -0.5)" fill="#92c0e9"/>
    </g>
    <g id="Group_24" data-name="Group 24" transform="translate(216.622 14.713)">
      <path id="Path_24" data-name="Path 24" d="M322.391,2.891h.175c.233,0,.233.116.233.349s-.058.349-.233.349h-.175v-.7ZM322.1,4.754h.291V3.823h.175l.291.932h.349l-.349-.99a.612.612,0,0,0,.291-.524c0-.408-.175-.641-.524-.641h-.466V4.754Z" transform="translate(-322.1 -2.6)" fill="#2c3b63" fill-rule="evenodd"/>
    </g>
    <g id="Group_25" data-name="Group 25" transform="translate(215.283 13.956)">
      <path id="Path_25" data-name="Path 25" d="M321.605,4.91a1.805,1.805,0,1,1,1.805-1.805A1.814,1.814,0,0,1,321.605,4.91Zm0-3.436a1.628,1.628,0,0,0-1.63,1.63,1.63,1.63,0,1,0,3.261,0A1.628,1.628,0,0,0,321.605,1.475Z" transform="translate(-319.8 -1.3)" fill="#fff"/>
    </g>
  </g>
</svg>
